<svg xmlns="http://www.w3.org/2000/svg" xmlns:xlink="http://www.w3.org/1999/xlink" width="500" zoomAndPan="magnify" viewBox="0 0 375 374.999991" height="500" preserveAspectRatio="xMidYMid meet" version="1.0"><defs><clipPath id="bbd0f2f931"><path d="M 69.371094 178 L 312 178 L 312 344 L 69.371094 344 Z M 69.371094 178 " clip-rule="nonzero"/></clipPath><clipPath id="7f2712df9a"><path d="M 283.554688 343.449219 L 69.574219 343.449219 L 69.574219 178.273438 L 283.554688 178.273438 C 299.144531 178.273438 311.765625 190.921875 311.765625 206.488281 L 311.765625 315.207031 C 311.765625 330.800781 299.117188 343.421875 283.554688 343.421875 " clip-rule="nonzero"/></clipPath><clipPath id="499cfe9458"><path d="M 0.371094 0.078125 L 243 0.078125 L 243 165.679688 L 0.371094 165.679688 Z M 0.371094 0.078125 " clip-rule="nonzero"/></clipPath><clipPath id="b8f7b687b9"><path d="M 214.554688 165.449219 L 0.574219 165.449219 L 0.574219 0.273438 L 214.554688 0.273438 C 230.144531 0.273438 242.765625 12.921875 242.765625 28.488281 L 242.765625 137.207031 C 242.765625 152.800781 230.117188 165.421875 214.554688 165.421875 " clip-rule="nonzero"/></clipPath><clipPath id="a5c7ba64aa"><rect x="0" width="243" y="0" height="166"/></clipPath><clipPath id="0c59c07231"><path d="M 70 31.199219 L 305 31.199219 L 305 178.585938 L 70 178.585938 Z M 70 31.199219 " clip-rule="nonzero"/></clipPath><clipPath id="ab8179705b"><path d="M 304.949219 59.761719 L 304.949219 150.0625 C 304.949219 165.65625 292.300781 178.273438 276.738281 178.273438 L 70.035156 178.273438 L 70.035156 31.550781 L 276.738281 31.550781 C 292.332031 31.550781 304.949219 44.199219 304.949219 59.761719 " clip-rule="nonzero"/></clipPath><clipPath id="aa74b55299"><path d="M 0 0.441406 L 235 0.441406 L 235 147.320312 L 0 147.320312 Z M 0 0.441406 " clip-rule="nonzero"/></clipPath><clipPath id="9f13eacfb1"><path d="M 234.949219 28.761719 L 234.949219 119.0625 C 234.949219 134.65625 222.300781 147.273438 206.738281 147.273438 L 0.0351562 147.273438 L 0.0351562 0.550781 L 206.738281 0.550781 C 222.332031 0.550781 234.949219 13.199219 234.949219 28.761719 " clip-rule="nonzero"/></clipPath><clipPath id="283fbf3d7b"><rect x="0" width="235" y="0" height="148"/></clipPath><clipPath id="a13ed0bcab"><path d="M 63 31.199219 L 266.609375 31.199219 L 266.609375 344 L 63 344 Z M 63 31.199219 " clip-rule="nonzero"/></clipPath><clipPath id="e70f11dd32"><path d="M 239.023438 31.550781 L 63.222656 31.550781 L 63.222656 343.449219 L 266.34375 343.449219 L 266.34375 58.867188 C 266.34375 43.792969 254.097656 31.550781 239.023438 31.550781 " clip-rule="nonzero"/></clipPath><clipPath id="665024f093"><path d="M 0.121094 0.441406 L 203.398438 0.441406 L 203.398438 312.679688 L 0.121094 312.679688 Z M 0.121094 0.441406 " clip-rule="nonzero"/></clipPath><clipPath id="11095d2cc6"><path d="M 176.023438 0.550781 L 0.222656 0.550781 L 0.222656 312.449219 L 203.34375 312.449219 L 203.34375 27.867188 C 203.34375 12.792969 191.097656 0.550781 176.023438 0.550781 " clip-rule="nonzero"/></clipPath><clipPath id="9fcdd8530e"><rect x="0" width="204" y="0" height="313"/></clipPath></defs><g clip-path="url(#bbd0f2f931)"><g clip-path="url(#7f2712df9a)"><g transform="matrix(1, 0, 0, 1, 69, 178)"><g clip-path="url(#a5c7ba64aa)"><g clip-path="url(#499cfe9458)"><g clip-path="url(#b8f7b687b9)"><rect x="-151.5" width="540" fill="#8ad0dc" height="539.999987" y="-260.499998" fill-opacity="1"/></g></g></g></g></g></g><g clip-path="url(#0c59c07231)"><g clip-path="url(#ab8179705b)"><g transform="matrix(1, 0, 0, 1, 70, 31)"><g clip-path="url(#283fbf3d7b)"><g clip-path="url(#aa74b55299)"><g clip-path="url(#9f13eacfb1)"><rect x="-152.5" width="540" fill="#0099b2" height="539.999987" y="-113.499998" fill-opacity="1"/></g></g></g></g></g></g><g clip-path="url(#a13ed0bcab)"><g clip-path="url(#e70f11dd32)"><g transform="matrix(1, 0, 0, 1, 63, 31)"><g clip-path="url(#9fcdd8530e)"><g clip-path="url(#665024f093)"><g clip-path="url(#11095d2cc6)"><rect x="-145.5" width="540" fill="#8ad0dc" height="539.999987" y="-113.499998" fill-opacity="1"/></g></g></g></g></g></g></svg>