<svg xmlns="http://www.w3.org/2000/svg" xmlns:xlink="http://www.w3.org/1999/xlink" width="1440" zoomAndPan="magnify" viewBox="0 0 1080 374.999991" height="500" preserveAspectRatio="xMidYMid meet" version="1.0"><defs><clipPath id="350478c9d7"><path d="M 38.703125 170 L 224.460938 170 L 224.460938 296.804688 L 38.703125 296.804688 Z M 38.703125 170 " clip-rule="nonzero"/></clipPath><clipPath id="5c1def355f"><path d="M 202.769531 296.640625 L 38.75 296.640625 L 38.75 170.027344 L 202.769531 170.027344 C 214.722656 170.027344 224.394531 179.722656 224.394531 191.652344 L 224.394531 274.992188 C 224.394531 286.945312 214.699219 296.617188 202.769531 296.617188 " clip-rule="nonzero"/></clipPath><clipPath id="bf4c00978e"><path d="M 202.769531 296.640625 L 38.75 296.640625 L 38.75 170.027344 L 202.769531 170.027344 C 214.722656 170.027344 224.394531 179.722656 224.394531 191.652344 L 224.394531 274.992188 C 224.394531 286.945312 214.699219 296.617188 202.769531 296.617188 " clip-rule="nonzero"/></clipPath><clipPath id="0eaa504640"><path d="M 39.058594 57.402344 L 219.238281 57.402344 L 219.238281 170.085938 L 39.058594 170.085938 Z M 39.058594 57.402344 " clip-rule="nonzero"/></clipPath><clipPath id="1dc5212863"><path d="M 219.171875 79.183594 L 219.171875 148.402344 C 219.171875 160.355469 209.476562 170.027344 197.546875 170.027344 L 39.101562 170.027344 L 39.101562 57.558594 L 197.546875 57.558594 C 209.5 57.558594 219.171875 67.253906 219.171875 79.183594 " clip-rule="nonzero"/></clipPath><clipPath id="9dda32029e"><path d="M 219.171875 79.183594 L 219.171875 148.402344 C 219.171875 160.355469 209.476562 170.027344 197.546875 170.027344 L 39.101562 170.027344 L 39.101562 57.558594 L 197.546875 57.558594 C 209.5 57.558594 219.171875 67.253906 219.171875 79.183594 " clip-rule="nonzero"/></clipPath><clipPath id="213425c99d"><path d="M 33.839844 57.402344 L 189.722656 57.402344 L 189.722656 296.804688 L 33.839844 296.804688 Z M 33.839844 57.402344 " clip-rule="nonzero"/></clipPath><clipPath id="a112ded632"><path d="M 168.640625 57.558594 L 33.878906 57.558594 L 33.878906 296.640625 L 189.578125 296.640625 L 189.578125 78.5 C 189.578125 66.945312 180.191406 57.558594 168.640625 57.558594 " clip-rule="nonzero"/></clipPath><clipPath id="e96617e19f"><path d="M 168.640625 57.558594 L 33.878906 57.558594 L 33.878906 296.640625 L 189.578125 296.640625 L 189.578125 78.5 C 189.578125 66.945312 180.191406 57.558594 168.640625 57.558594 " clip-rule="nonzero"/></clipPath></defs><g clip-path="url(#350478c9d7)"><g clip-path="url(#5c1def355f)"><g clip-path="url(#bf4c00978e)"><rect x="-108" width="1296" fill="#8ad0dc" y="-37.499999" height="449.999989" fill-opacity="1"/></g></g></g><g clip-path="url(#0eaa504640)"><g clip-path="url(#1dc5212863)"><g clip-path="url(#9dda32029e)"><rect x="-108" width="1296" fill="#0099b2" y="-37.499999" height="449.999989" fill-opacity="1"/></g></g></g><g clip-path="url(#213425c99d)"><g clip-path="url(#a112ded632)"><g clip-path="url(#e96617e19f)"><rect x="-108" width="1296" fill="#8ad0dc" y="-37.499999" height="449.999989" fill-opacity="1"/></g></g></g><path fill="#8ad0dc" d="M 406.265625 176.09375 C 414.855469 178.824219 421.585938 183.371094 426.457031 189.746094 C 431.332031 196.121094 433.769531 203.96875 433.769531 213.277344 C 433.769531 226.460938 428.648438 236.597656 418.40625 243.6875 C 408.164062 250.785156 393.222656 254.328125 373.59375 254.328125 L 295.792969 254.328125 L 295.792969 103.882812 L 369.292969 103.882812 C 387.632812 103.882812 401.710938 107.398438 411.527344 114.417969 C 421.347656 121.4375 426.257812 130.964844 426.257812 143 C 426.257812 150.308594 424.5 156.828125 420.984375 162.558594 C 417.472656 168.289062 412.570312 172.800781 406.265625 176.09375 Z M 330.398438 130.097656 L 330.398438 165.570312 L 365.003906 165.570312 C 373.59375 165.570312 380.109375 164.070312 384.550781 161.058594 C 388.992188 158.046875 391.21875 153.601562 391.21875 147.722656 C 391.21875 141.851562 388.992188 137.445312 384.550781 134.503906 C 380.109375 131.570312 373.59375 130.097656 365.003906 130.097656 Z M 371.015625 228.113281 C 380.183594 228.113281 387.097656 226.613281 391.757812 223.601562 C 396.410156 220.589844 398.742188 215.925781 398.742188 209.621094 C 398.742188 197.164062 389.496094 190.929688 371.015625 190.929688 L 330.398438 190.929688 L 330.398438 228.113281 Z M 371.015625 228.113281 " fill-opacity="1" fill-rule="nonzero"/><path fill="#8ad0dc" d="M 462.34375 138.699219 L 495.882812 138.699219 L 495.882812 254.328125 L 462.34375 254.328125 Z M 479.113281 122.585938 C 472.949219 122.585938 467.933594 120.800781 464.066406 117.21875 C 460.199219 113.632812 458.265625 109.191406 458.265625 103.882812 C 458.265625 98.582031 460.199219 94.140625 464.066406 90.558594 C 467.933594 86.972656 472.949219 85.179688 479.113281 85.179688 C 485.277344 85.179688 490.292969 86.902344 494.160156 90.347656 C 498.027344 93.789062 499.960938 98.082031 499.960938 103.238281 C 499.960938 108.828125 498.027344 113.445312 494.160156 117.101562 C 490.292969 120.757812 485.277344 122.585938 479.113281 122.585938 Z M 479.113281 122.585938 " fill-opacity="1" fill-rule="nonzero"/><path fill="#8ad0dc" d="M 601.835938 136.976562 C 616.160156 136.976562 627.726562 141.277344 636.535156 149.878906 C 645.347656 158.476562 649.753906 171.226562 649.753906 188.128906 L 649.753906 254.328125 L 616.226562 254.328125 L 616.226562 193.285156 C 616.226562 184.121094 614.214844 177.285156 610.203125 172.765625 C 606.195312 168.253906 600.394531 165.992188 592.800781 165.992188 C 584.34375 165.992188 577.613281 168.613281 572.597656 173.84375 C 567.585938 179.070312 565.085938 186.847656 565.085938 197.164062 L 565.085938 254.328125 L 531.546875 254.328125 L 531.546875 138.699219 L 563.574219 138.699219 L 563.574219 152.246094 C 568.015625 147.371094 573.535156 143.609375 580.121094 140.960938 C 586.710938 138.308594 593.949219 136.976562 601.835938 136.976562 Z M 601.835938 136.976562 " fill-opacity="1" fill-rule="nonzero"/><path fill="#8ad0dc" d="M 802.347656 94.859375 L 802.347656 254.328125 L 770.320312 254.328125 L 770.320312 241.003906 C 762.007812 251.035156 749.972656 256.050781 734.214844 256.050781 C 723.324219 256.050781 713.472656 253.621094 704.660156 248.75 C 695.847656 243.875 688.933594 236.925781 683.917969 227.902344 C 678.910156 218.875 676.40625 208.414062 676.40625 196.519531 C 676.40625 184.625 678.910156 174.160156 683.917969 165.136719 C 688.933594 156.109375 695.847656 149.160156 704.660156 144.289062 C 713.472656 139.414062 723.324219 136.976562 734.214844 136.976562 C 748.972656 136.976562 760.507812 141.636719 768.820312 150.945312 L 768.820312 94.859375 Z M 740.015625 228.535156 C 748.46875 228.535156 755.488281 225.640625 761.074219 219.839844 C 766.667969 214.039062 769.464844 206.265625 769.464844 196.519531 C 769.464844 186.769531 766.667969 179 761.074219 173.199219 C 755.488281 167.398438 748.46875 164.492188 740.015625 164.492188 C 731.421875 164.492188 724.328125 167.398438 718.734375 173.199219 C 713.148438 179 710.355469 186.769531 710.355469 196.519531 C 710.355469 206.265625 713.148438 214.039062 718.734375 219.839844 C 724.328125 225.640625 731.421875 228.535156 740.015625 228.535156 Z M 740.015625 228.535156 " fill-opacity="1" fill-rule="nonzero"/><path fill="#8ad0dc" d="M 951.066406 196.941406 C 951.066406 197.375 950.851562 200.386719 950.421875 205.976562 L 862.941406 205.976562 C 864.519531 213.144531 868.246094 218.804688 874.121094 222.957031 C 879.996094 227.105469 887.304688 229.179688 896.046875 229.179688 C 902.0625 229.179688 907.398438 228.289062 912.054688 226.496094 C 916.710938 224.710938 921.046875 221.878906 925.0625 218.011719 L 942.898438 237.347656 C 932.007812 249.816406 916.101562 256.050781 895.179688 256.050781 C 882.140625 256.050781 870.605469 253.507812 860.574219 248.421875 C 850.550781 243.335938 842.816406 236.28125 837.371094 227.257812 C 831.925781 218.230469 829.203125 207.980469 829.203125 196.519531 C 829.203125 185.199219 831.886719 174.992188 837.253906 165.898438 C 842.628906 156.800781 850.007812 149.703125 859.390625 144.617188 C 868.78125 139.527344 879.277344 136.976562 890.878906 136.976562 C 902.199219 136.976562 912.445312 139.414062 921.617188 144.289062 C 930.789062 149.160156 937.988281 156.144531 943.214844 165.242188 C 948.449219 174.347656 951.066406 184.914062 951.066406 196.941406 Z M 891.101562 162.335938 C 883.507812 162.335938 877.128906 164.492188 871.964844 168.792969 C 866.808594 173.09375 863.660156 178.964844 862.519531 186.417969 L 919.472656 186.417969 C 918.324219 179.105469 915.167969 173.269531 910.003906 168.898438 C 904.847656 164.527344 898.546875 162.335938 891.101562 162.335938 Z M 891.101562 162.335938 " fill-opacity="1" fill-rule="nonzero"/><path fill="#8ad0dc" d="M 1009.945312 153.957031 C 1013.957031 148.375 1019.371094 144.148438 1026.175781 141.277344 C 1032.976562 138.414062 1040.824219 136.976562 1049.707031 136.976562 L 1049.707031 167.925781 C 1045.980469 167.644531 1043.472656 167.503906 1042.183594 167.503906 C 1032.578125 167.503906 1025.054688 170.195312 1019.613281 175.566406 C 1014.175781 180.933594 1011.457031 188.996094 1011.457031 199.742188 L 1011.457031 254.328125 L 977.917969 254.328125 L 977.917969 138.699219 L 1009.945312 138.699219 Z M 1009.945312 153.957031 " fill-opacity="1" fill-rule="nonzero"/></svg>